# xmcd
#
# Track frame offsets: 
#        150
#        17239
#        32778
#        57676
#        80925
#        104575
#        131295
#        152828
#        170827
#        192742
#
# Disc length: 2763 seconds
#
# Revision: 0
# Processed by: cddbd v1.5.2PL0 Copyright (c) Steve Scherf et al.
# Submitted via: ExactAudioCopy v0.95b4
#
DISCID=960ac90a
DTITLE=Slowburn - Devil in My Blood
DYEAR=2006
DGENRE=Country
TTITLE0=When You Fall in Love
TTITLE1=Thats' What I Learned (From Loving You)
TTITLE2=Move in for the Kill
TTITLE3=Noone Lives Here Nomore
TTITLE4=Luckiest Man Alive
TTITLE5=Tears Never Dry
TTITLE6=Devil in My Blood
TTITLE7=Here Comes the Blues Again
TTITLE8=Long Lost Glory Days
TTITLE9=Songbird
EXTD=
EXTT0=
EXTT1=
EXTT2=
EXTT3=
EXTT4=
EXTT5=
EXTT6=
EXTT7=
EXTT8=
EXTT9=
PLAYORDER=
